# xmcd
#
# Track frame offsets:
#	150
#	15080
#	32956
#	50026
#	71946
#	88209
#	103761
#	120265
#	137589
#	159080
#	178249
#
# Disc length: 2587 seconds
#
# Revision: 3
# Processed by: cddbd v1.5.2PL0 Copyright (c) Steve Scherf et al.
# Submitted via: audiograbber 1.83.01
#
DISCID=8f0a190b
DTITLE=Bow Wow - New Jack City II
DYEAR=2009
DGENRE=Rap
TTITLE0=Get That Paper
TTITLE1=What They Call Me (feat Nelly, Ron Browz)
TTITLE2=Roc The Mic (feat Jermaine Dupri)
TTITLE3=Been Doin' This (feat T.I.)
TTITLE4=You Can Get It All (feat Johnta Austin)
TTITLE5=Sunshine
TTITLE6=Like This (feat Johnta Austin, Dondria)
TTITLE7=She's My (feat T-Pain)
TTITLE8=I Ain't Playing (feat Trey Songz)
TTITLE9=Pole In My Basement
TTITLE10=Shake It (feat Swizz Beatz)
EXTD=www.RapMusicGuide.com
EXTT0=
EXTT1=
EXTT2=
EXTT3=
EXTT4=
EXTT5=
EXTT6=
EXTT7=
EXTT8=
EXTT9=
EXTT10=
PLAYORDER=
